<svg version="1.1" xmlns="http://www.w3.org/2000/svg" xmlns:xlink="http://www.w3.org/1999/xlink" width="90.25789" height="114.70814" viewBox="0,0,90.25789,114.70814"><g transform="translate(-202.63521,-105.16578)"><g data-paper-data="{&quot;isPaintingLayer&quot;:true}" fill-rule="nonzero" stroke-linejoin="miter" stroke-miterlimit="10" stroke-dasharray="" stroke-dashoffset="0" style="mix-blend-mode: normal"><path d="M219.58031,150.19895l40.72264,-22.80468" fill="none" stroke="#fff365" stroke-width="5" stroke-linecap="round"/><path d="M218.60379,140.37608c8.31942,0 15.06364,17.74023 15.06364,39.62392c0,21.88369 -6.74422,39.62392 -15.06364,39.62392c-8.31942,0 -15.06364,-17.74023 -15.06364,-39.62392c0,-21.88369 6.74422,-39.62392 15.06364,-39.62392z" data-paper-data="{&quot;index&quot;:null}" fill="#00b706" stroke="#000000" stroke-width="0.5" stroke-linecap="butt"/><path d="M218.60379,163.95395c8.68113,0 15.71858,7.18406 15.71858,16.04605c0,8.86199 -7.03745,16.04605 -15.71858,16.04605c-8.68113,0 -15.71858,-7.18406 -15.71858,-16.04605c0,-8.86199 7.03745,-16.04605 15.71858,-16.04605z" data-paper-data="{&quot;index&quot;:null}" fill="#fff265" stroke="#000000" stroke-width="0.5" stroke-linecap="butt"/><g stroke="#000000"><path d="M260.05211,128.76623c-0.17009,-10.8439 6.87584,-19.7473 15.73753,-19.8863c8.86168,-0.139 16.18338,8.53904 16.35347,19.38295c0.17009,10.8439 -6.87584,19.7473 -15.73753,19.8863c-8.86168,0.139 -16.18338,-8.53904 -16.35347,-19.38295z" fill="#00dc0c" stroke-width="1.5" stroke-linecap="butt"/><path d="M263.85154,115.19131l0.42387,27.02399" fill="none" stroke-width="1.5" stroke-linecap="round"/><path d="M275.15957,109.10099l0.61594,39.26924" fill="none" stroke-width="1.5" stroke-linecap="round"/><path d="M285.77542,112.73566l0.47023,29.97974" fill="none" stroke-width="1" stroke-linecap="round"/><path d="M269.76269,146.35278l-0.55192,-35.18749" fill="none" stroke-width="1.5" stroke-linecap="round"/><path d="M281.03843,110.41663l0.57179,36.45424" fill="none" stroke-width="1" stroke-linecap="round"/><path d="M259.44945,113.10678l-0.10818,-6.89675l18.01599,-0.28258l0.10818,6.89675z" fill="#e6e6e6" stroke-width="1.5" stroke-linecap="butt"/><path d="M287.87274,115.56872l-24.73234,0.38793" fill="none" stroke-width="1" stroke-linecap="round"/><path d="M261.33558,122.21281l29.05618,-0.45575" fill="none" stroke-width="1" stroke-linecap="round"/><path d="M292.20267,126.91854l-31.30457,0.49101" fill="none" stroke-width="1" stroke-linecap="round"/><path d="M291.23547,131.4316l-30.95866,0.48559" fill="none" stroke-width="1" stroke-linecap="round"/><path d="M289.91967,135.77713l-28.1914,0.44218" fill="none" stroke-width="1" stroke-linecap="round"/><path d="M264.04719,140.68085l24.90529,-0.39064" fill="none" stroke-width="1" stroke-linecap="round"/><path d="M266.52008,143.92898l21.44622,-0.33638" fill="none" stroke-width="1" stroke-linecap="round"/></g></g></g></svg>